# AST/ASF file generated using VICON BodyLanguage
# -----------------------------------------------
:version 1.10
:name VICON
:units
  mass 1.0
  length 0.45
  angle deg
:documentation
   .ast/.asf automatically generated from VICON data using
   VICON BodyBuilder and BodyLanguage model FoxedUp or BRILLIANT.MOD
:root
   order TX TY TZ RX RY RZ
   axis XYZ
   position 0 0 0  
   orientation 0 0 0 
:bonedata
  begin
     id 1 
     name lhipjoint
     direction 0.692814 -0.645514 0.321437 
     length 2.38754 
     axis 0 0 0  XYZ
  end
  begin
     id 2 
     name lfemur
     direction 0.34202 -0.939693 0  
     length 6.41921  
     axis 0 0 20  XYZ
    dof rx ry rz
    limits (-160.0 20.0)
           (-70.0 70.0)
           (-60.0 70.0)
  end
  begin
     id 3 
     name ltibia
     direction 0.34202 -0.939693 0   
     length 6.98247   
     axis 0 0 20   XYZ
    dof rx
    limits (-10.0 170.0)
  end
  begin
     id 4 
     name lfoot
     direction 0.0947186 -0.260237 0.960888   
     length 1.83034   
     axis -90 7.62852e-016 20   XYZ
    dof rx rz
    limits (-45.0 90.0)
           (-70.0 20.0)
  end
  begin
     id 5 
     name ltoes
     direction 1.53538e-011 -4.21952e-011 1   
     length 0.920499   
     axis -90 7.62852e-016 20   XYZ
    dof rx
    limits (-90.0 20.0)
  end
  begin
     id 6 
     name rhipjoint
     direction -0.631686 -0.693949 0.345555   
     length 2.2209  
     axis 0 0 0  XYZ 
  end
  begin
     id 7 
     name rfemur
     direction -0.34202 -0.939693 0   
     length 6.49542   
     axis 0 0 -20   XYZ
    dof rx ry rz
    limits (-160.0 20.0)
           (-70.0 70.0)
           (-70.0 60.0)
  end
  begin
     id 8 
     name rtibia
     direction -0.34202 -0.939693 0   
     length 7.21712   
     axis 0 0 -20   XYZ
    dof rx
    limits (-10.0 170.0)
 end
 begin
     id 9 
     name rfoot
     direction -0.0825378 -0.226771 0.970444   
     length 1.89724  
     axis -90 -7.62852e-016 -20   XYZ
    dof rx rz
    limits (-45.0 90.0)
           (-20.0 70.0)
  end
  begin
     id 10 
     name rtoes
     direction -1.53515e-011 -4.22016e-011 1   
     length 0.955868   
     axis -90 -7.62852e-016 -20   XYZ
    dof rx
    limits (-90.0 20.0)
  end
  begin
     id 11 
     name lowerback
     direction -0.0104711 0.984802 -0.173368   
     length 1.84931   
     axis 0 0 0   XYZ
    dof rx ry rz
    limits (-20.0 45.0)
           (-30.0 30.0)
           (-30.0 30.0)
  end
  begin
     id 12 
     name upperback
     direction -0.00286433 0.999996 -0.000382853   
     length 1.85768   
     axis 0 0 0   XYZ
    dof rx ry rz
    limits (-20.0 45.0)
           (-30.0 30.0)
           (-30.0 30.0)
  end
  begin
     id 13 
     name thorax
     direction 0.00167534 0.996793 0.0800069   
     length 1.92   
     axis 0 0 0   XYZ
    dof rx ry rz
    limits (-20.0 45.0)
           (-30.0 30.0)
           (-30.0 30.0)
  end
  begin
     id 14 
     name lowerneck
     direction -0.0672491 0.995415 0.068018   
     length 1.58923   
     axis 0 0 0   XYZ
    dof rx ry rz
    limits (-20.0 45.0)
           (-30.0 30.0)
           (-30.0 30.0)
  end
  begin
     id 15 
     name upperneck
     direction 0.0958019 0.982476 -0.159884   
     length 1.60189   
     axis 0 0 0   XYZ
    dof rx ry rz
    limits (-20.0 45.0)
           (-30.0 30.0)
           (-30.0 30.0)
  end
  begin
     id 16
     name head
     direction 0.032989 0.997338 -0.0650226  
     length 1.61681  
     axis 0 0 0   XYZ
    dof rx ry rz
    limits (-20.0 45.0)
           (-30.0 30.0)
           (-30.0 30.0)
  end
  begin
     id 17 
     name lclavicle
     direction 0.954279 0.298875 -0.00496069  
     length 2.99449  
     axis 0 0 0   XYZ
    dof ry rz
    limits (-20.0 10.0)
           (0.0 20.0)
  end
  begin
     id 18 
     name lhumerus
     direction 1 -4.48985e-011 -4.2057e-027   
     length 4.79185   
     axis 180 -30 -90   XYZ
    dof rx ry rz
    limits (-60.0 90.0)
           (-90.0 90.0)
           (-90.0 90.0)
  end
  begin
     id 19
     name lradius
     direction 1 -4.48945e-011 1.15441e-028   
     length 2.65553   
     axis 180 -30 -90   XYZ
    dof rx
    limits (-10.0 170.0)
  end
  begin
     id 20
     name lwrist
     direction 1 -4.4899e-011 4.8894e-028   
     length 1.32777   
     axis -2.56392e-016 90 90   XYZ
    dof ry
    limits (-180.0 0.0)
 end
  begin
     id 21 
     name lhand
     direction 1 -4.48908e-011 9.7788e-028   
     length 0.743904   
     axis -6.23971e-016 90 90   XYZ
    dof rx rz
    limits (-90.0 90.0)
           (-45.0 45.0)
  end
  begin
     id 22 
     name lfingers
     direction 1 -4.49068e-011 1.95576e-027   
     length 0.599754   
     axis -1.24794e-015 90 90   XYZ
    dof rx
    limits (0.0 90.0)
  end
  begin
     id 23
     name lthumb
     direction 0.707107 -6.34883e-011 0.707107   
     length 0.861131   
     axis -90 45 2.85299e-015   XYZ
    dof rx rz
    limits (-45.0 45.0)
           (-45.0 45.0)
  end
  begin
     id 24 
     name rclavicle
     direction -0.957921 0.286916 0.00811568   
     length 3.06817  
     axis 0 0 0   XYZ 
    dof ry rz
    limits (-10.0 20.0)
           (-20.0 0.0)
  end
  begin
     id 25 
     name rhumerus
     direction -1 -4.48971e-011 -3.07942e-027  
     length 4.77254   
     axis 180 30 90   XYZ
    dof rx ry rz
    limits (-90.0 60.0)
           (-90.0 90.0)
           (-90.0 90.0)
  end
  begin
     id 26 
     name rradius
     direction -1 -4.48957e-011 -9.6815e-028   
     length 2.75995   
     axis 180 30 90   XYZ
    dof rx
    limits (-10.0 170.0)
  end
  begin
     id 27 
     name rwrist
     direction -1 -4.48979e-011 4.8894e-028   
     length 1.37997   
     axis -2.56392e-016 -90 -90   XYZ
    dof ry
    limits (-180.0 0.0)
  end
  begin
     id 28
     name rhand
     direction -1 -4.48906e-011 9.7788e-028   
     length 0.701619   
     axis -6.23971e-016 -90 -90   XYZ
    dof rx rz
    limits (-90.0 90.0)
           (-45.0 45.0)
  end
  begin
     id 29
     name rfingers
     direction -1 -4.49018e-011 1.95576e-027   
     length 0.565663   
     axis -1.24794e-015 -90 -90   XYZ
    dof rx
    limits (0.0 90.0)
  end
  begin
     id 30
     name rthumb
     direction -0.707107 -6.34881e-011 0.707107   
     length 0.812183   
     axis -90 -45 -2.85299e-015   XYZ
    dof rx rz
    limits (-45.0 45.0)
           (-45.0 45.0)
  end
:hierarchy
  begin
    root lhipjoint rhipjoint lowerback
    lhipjoint lfemur
    lfemur ltibia
    ltibia lfoot
    lfoot ltoes
    rhipjoint rfemur
    rfemur rtibia
    rtibia rfoot
    rfoot rtoes
    lowerback upperback
    upperback thorax
    thorax lowerneck lclavicle rclavicle
    lowerneck upperneck
    upperneck head
    lclavicle lhumerus
    lhumerus lradius
    lradius lwrist
    lwrist lhand lthumb
    lhand lfingers
    rclavicle rhumerus
    rhumerus rradius
    rradius rwrist
    rwrist rhand rthumb
    rhand rfingers
  end

#!OML:ASF F:\VICON\USERDATA\INSTALL\rory3\rory3.ASF
:FULLY-SPECIFIED
:DEGREES
488
root 0.361656 15.9398 -0.446244 -2.56486 -2.23683 -0.364646
lowerback 13.8888 0.396065 -1.51382
upperback -1.20789 0.240548 -0.334093
thorax -9.12298 0.181317 0.446683
lowerneck -13.0367 -9.26358 -13.518
upperneck 35.003 -9.79132 -0.535612
head 15.169 -6.0676 0.381746
rclavicle -1.71452e-015 3.37934e-015
rhumerus 41.5626 51.6879 -22.8324
rradius 112.386
rwrist -69.2998
rhand 2.91404 9.19907
rfingers 7.12502
rthumb 28.3784 -18.6699
lclavicle -1.71452e-015 3.37934e-015
lhumerus 50.096 -45.8503 19.7945
lradius 68.7045
lwrist 61.2971
lhand 2.64099 23.996
lfingers 7.12502
lthumb 28.1174 51.9081
rfemur -5.03808 11.7018 17.2116
rtibia 25.0755
rfoot -13.1436 -11.4254
rtoes -11.5322
lfemur -2.11546 -10.6603 -17.8816
ltibia 20.7375
lfoot -12.0688 9.40229
ltoes -12.3609
489
root 0.369223 15.9409 -0.448754 -2.5481 -2.3837 -0.322317
lowerback 13.9661 0.347242 -1.50811
upperback -1.27221 0.178146 -0.29149
thorax -9.23659 0.153224 0.502104
lowerneck -12.9952 -9.17025 -13.3931
upperneck 35.0198 -9.66525 -0.627893
head 15.1407 -6.01306 0.350441
rclavicle -8.04146e-015 9.93923e-015
rhumerus 41.2027 49.748 -24.2556
rradius 112.136
rwrist -69.8787
rhand 2.06575 9.10551
rfingers 7.12502
rthumb 27.5675 -18.8957
lclavicle -8.04146e-015 9.93923e-015
lhumerus 50.9583 -47.5957 17.553
lradius 69.0741
lwrist 61.6709
lhand 2.67549 24.3761
lfingers 7.12502
lthumb 28.1504 52.2828
rfemur -5.07444 11.8104 17.1197
rtibia 25.022
rfoot -13.1257 -11.3498
rtoes -11.441
lfemur -2.08005 -10.6373 -17.9701
ltibia 20.7041
lfoot -12.0735 9.5321
ltoes -12.3469
490
root 0.372638 15.9439 -0.449521 -2.53524 -2.44146 -0.325538
lowerback 13.8978 0.270405 -1.5095
upperback -1.23818 0.0826361 -0.232659
thorax -9.15824 0.108427 0.586987
lowerneck -12.9583 -9.1179 -13.3445
upperneck 34.9504 -9.61514 -0.612452
head 15.0913 -5.98344 0.36323
rclavicle 4.27076e-015 -4.96962e-015
rhumerus 41.223 47.7776 -25.2611
rradius 111.708
rwrist -70.1406
rhand 0.523949 9.00694
rfingers 7.12502
rthumb 26.0921 -19.2207
lclavicle 4.27076e-015 -4.96962e-015
lhumerus 51.9619 -49.2179 15.1669
lradius 69.7463
lwrist 62.0142
lhand 3.15443 24.6764
lfingers 7.12502
lthumb 28.6081 52.5069
rfemur -5.05531 11.8806 17.1117
rtibia 24.9567
rfoot -13.1403 -11.3293
rtoes -11.2161
lfemur -2.06573 -10.5947 -17.9718
ltibia 20.6782
lfoot -12.046 9.53469
ltoes -12.179
491
root 0.373579 15.9453 -0.451766 -2.53902 -2.51998 -0.41038
lowerback 13.7085 0.187481 -1.3595
upperback -1.10016 0.00347733 -0.218954
thorax -8.89698 0.0610402 0.534164
lowerneck -12.942 -9.0685 -13.2457
upperneck 34.7831 -9.60135 -0.53102
head 15.0019 -5.95128 0.390963
rclavicle -8.69683e-016 0
rhumerus 41.3918 45.7508 -26.163
rradius 110.961
rwrist -70.3893
rhand -0.627576 9.2292
rfingers 7.12502
rthumb 24.9891 -19.1565
lclavicle -8.69683e-016 0
lhumerus 53.2423 -50.6762 12.5379
lradius 70.6566
lwrist 62.4596
lhand 3.67276 24.728
lfingers 7.12502
lthumb 29.1032 52.474
rfemur -5.01672 12.0046 17.2223
rtibia 24.8785
rfoot -13.1078 -11.3829
rtoes -11.2565
lfemur -2.0326 -10.5346 -17.8676
ltibia 20.6383
lfoot -12.0956 9.5197
ltoes -11.7714
492
root 0.375391 15.9457 -0.454914 -2.51723 -2.63607 -0.45553
lowerback 13.4634 0.12031 -1.23176
upperback -0.949172 -0.0613761 -0.240957
thorax -8.59115 0.0207182 0.452108
lowerneck -12.9297 -9.04471 -13.1304
upperneck 34.5801 -9.64825 -0.397923
head 14.903 -5.93518 0.426651
rclavicle 1.04362e-015 -4.37326e-015
rhumerus 41.5239 43.8043 -27.0623
rradius 109.985
rwrist -70.5533
rhand -1.34754 9.38118
rfingers 7.12502
rthumb 24.2991 -19.0987
lclavicle 1.04362e-015 -4.37326e-015
lhumerus 54.5833 -52.0192 9.89563
lradius 71.8304
lwrist 63.0601
lhand 4.14841 24.7269
lfingers 7.12502
lthumb 29.5574 52.3934
rfemur -5.02885 12.16 17.2724
rtibia 24.8016
rfoot -13.0992 -11.3936
rtoes -11.1636
lfemur -2.03186 -10.4461 -17.8078
ltibia 20.5941
lfoot -12.1488 9.53785
ltoes -11.7337
493
root 0.37898 15.9471 -0.457687 -2.50623 -2.71136 -0.418049
lowerback 13.3263 0.0508404 -1.18946
upperback -0.847646 -0.147204 -0.279403
thorax -8.40146 -0.0251033 0.404674
lowerneck -12.9314 -9.02164 -12.9776
upperneck 34.3789 -9.6873 -0.312578
head 14.8023 -5.91767 0.437378
rclavicle 3.71479e-015 7.7526e-015
rhumerus 41.6525 42.0061 -27.928
rradius 108.828
rwrist -70.6529
rhand -1.96943 9.21532
rfingers 7.12502
rthumb 23.7027 -19.3432
lclavicle 3.71479e-015 7.7526e-015
lhumerus 55.8085 -53.3489 7.43669
lradius 73.2265
lwrist 63.6613
lhand 4.67741 24.8189
lfingers 7.12502
lthumb 30.0622 52.3949
rfemur -5.0453 12.2367 17.2165
rtibia 24.7567
rfoot -13.1106 -11.3623
rtoes -11.3325
lfemur -2.03073 -10.4205 -17.8585
ltibia 20.5421
lfoot -12.0751 9.61671
ltoes -12.169
494
root 0.383142 15.9478 -0.461045 -2.47646 -2.7815 -0.382108
lowerback 13.2768 -0.0747084 -1.15928
upperback -0.806887 -0.30858 -0.282279
thorax -8.32665 -0.105138 0.417105
lowerneck -13.0202 -8.95628 -12.8888
upperneck 34.2237 -9.61734 -0.27009
head 14.7383 -5.86803 0.454358
rclavicle 1.10574e-014 3.97569e-015
rhumerus 42.0671 40.4402 -28.5518
rradius 107.505
rwrist -70.8178
rhand -2.36654 9.22079
rfingers 7.12502
rthumb 23.3218 -19.3865
lclavicle 1.10574e-014 3.97569e-015
lhumerus 56.5409 -54.6798 5.54639
lradius 74.685
lwrist 64.0781
lhand 5.38487 25.0157
lfingers 7.12502
lthumb 30.737 52.467
rfemur -5.11509 12.2992 17.1579
rtibia 24.7611
rfoot -13.057 -11.3801
rtoes -11.3719
lfemur -2.03289 -10.3805 -17.9031
ltibia 20.4594
lfoot -12.0051 9.67994
ltoes -12.3038
495
root 0.388419 15.9498 -0.463962 -2.43558 -2.89711 -0.268868
lowerback 13.2146 -0.19199 -1.23539
upperback -0.777539 -0.474255 -0.266929
thorax -8.25616 -0.182145 0.50949
lowerneck -13.1313 -8.89192 -13.0023
upperneck 34.1297 -9.5294 -0.114507
head 14.7306 -5.82187 0.548498
rclavicle -2.68359e-015 1.19271e-015
rhumerus 42.6389 39.0861 -28.9212
rradius 106.067
rwrist -70.9945
rhand -2.75332 9.36439
rfingers 7.12502
rthumb 22.9507 -19.2895
lclavicle -2.68359e-015 1.19271e-015
lhumerus 57.2205 -55.9812 3.83952
lradius 76.1843
lwrist 64.4214
lhand 5.95681 24.9455
lfingers 7.12502
lthumb 31.2822 52.2928
rfemur -5.23146 12.3392 16.9955
rtibia 24.788
rfoot -12.9629 -11.3368
rtoes -11.7248
lfemur -2.03154 -10.2293 -18.0199
ltibia 20.3748
lfoot -11.9727 9.63376
ltoes -12.2752
496
root 0.393273 15.9507 -0.465458 -2.43227 -3.04689 -0.152802
lowerback 13.1835 -0.259979 -1.34575
upperback -0.750147 -0.580644 -0.257376
thorax -8.20586 -0.229093 0.603055
lowerneck -13.1422 -8.8637 -13.1447
upperneck 34.0121 -9.5266 0.108474
head 14.702 -5.80727 0.664314
rclavicle -6.36732e-015 1.78906e-015
rhumerus 43.1652 37.8617 -29.1446
rradius 104.591
rwrist -71.1723
rhand -3.55043 9.3098
rfingers 7.12502
rthumb 22.1856 -19.4371
lclavicle -6.36732e-015 1.78906e-015
lhumerus 58.0466 -57.267 2.09964
lradius 77.8732
lwrist 64.8339
lhand 6.16422 24.8606
lfingers 7.12502
lthumb 31.4798 52.1696
rfemur -5.29658 12.4049 16.838
rtibia 24.8189
rfoot -12.9115 -11.2854
rtoes -11.8876
lfemur -1.97776 -10.0395 -18.151
ltibia 20.3026
lfoot -11.9186 9.56065
ltoes -12.1483
497
root 0.398322 15.9502 -0.467887 -2.41508 -3.15164 -0.150357
lowerback 13.1951 -0.327148 -1.30753
upperback -0.74323 -0.66367 -0.251893
thorax -8.2037 -0.270862 0.603954
lowerneck -13.0774 -8.85172 -13.253
upperneck 33.8505 -9.59162 0.395703
head 14.6422 -5.80894 0.793184
rclavicle -1.31074e-015 9.74045e-015
rhumerus 43.5601 36.7581 -29.3545
rradius 102.981
rwrist -71.2028
rhand -4.21928 9.28428
rfingers 7.12502
rthumb 21.5434 -19.5375
lclavicle -1.31074e-015 9.74045e-015
lhumerus 58.8191 -58.4636 0.540835
lradius 79.6797
lwrist 65.1537
lhand 6.4735 24.7748
lfingers 7.12502
lthumb 31.7744 52.0257
rfemur -5.35579 12.4931 16.8096
rtibia 24.8543
rfoot -12.9229 -11.2506
rtoes -11.5657
lfemur -1.93169 -9.98857 -18.1652
ltibia 20.2234
lfoot -11.9835 9.57653
ltoes -11.8804
